<svg xmlns="http://www.w3.org/2000/svg" viewBox="0 0 144.99 209.23"><defs><style>.cls-1{fill:#f26862;}.cls-2{fill:#fcd8b6;}.cls-3,.cls-4,.cls-5{fill:#262d32;}.cls-4,.cls-5{stroke:#1a1a1a;}.cls-4{stroke-miterlimit:10;stroke-width:0.52px;}.cls-5{stroke-linecap:round;stroke-linejoin:round;stroke-width:1.04px;}.cls-6{fill:#181c23;}.cls-7{fill:#474c56;}.cls-8{fill:#333d42;}.cls-9{fill:#58595b;}.cls-10{fill:#626974;}.cls-11{fill:#a7a9ac;}.cls-12{fill:#dce0e3;}.cls-13{fill:#bcbec0;}.cls-14{fill:#7a1535;}</style></defs><title>资源 4</title><g id="图层_2" data-name="图层 2"><g id="Layer_2" data-name="Layer 2"><path class="cls-1" d="M132.58,78.41s-1,17.23-13.27,21.82-.62,11.16,2,11.16-14.87,15.12-33.47-3.6,15.75-27.27,15.75-27.27l10.53-6.7Z"/><path class="cls-1" d="M12.86,79.66s1,17,13.06,21.48.61,11-2,11,14.64,14.89,33-3.54-15.5-26.85-15.5-26.85L31.05,75.15Z"/><path class="cls-2" d="M120.12,50.37V71c0,25.22-19.45,45.85-43.23,45.85H69.57A41.71,41.71,0,0,1,40.69,105,47,47,0,0,1,26.34,71V50.37c0-25.21,19.46-45.84,43.23-45.84h7.32C100.67,4.53,120.12,25.16,120.12,50.37Z"/><path class="cls-1" d="M55.53,38.29s29.29-14,40.62,16.58,40.11,23.41,45.53,5.74S144.23,42,144.23,42L141,42.4l2.19-6s-10.71,7.94-20.38-5.95S106.89-3.85,73.48.63s-30.2,10.83-30.2,10.83-28.35-.52-34.5,31.23C5.78,59.85,17,61.24,0,71.86c0,0,14.61,18,30.49,2.91S23.13,34.86,55.53,38.29Z"/><ellipse class="cls-3" cx="94.42" cy="80" rx="5.11" ry="7.59"/><line class="cls-4" x1="86.37" y1="70.88" x2="104.85" y2="63.63"/><ellipse class="cls-3" cx="51.45" cy="80" rx="5.11" ry="7.59"/><line class="cls-4" x1="59.5" y1="70.88" x2="41.02" y2="63.63"/><line class="cls-5" x1="71.47" y1="103.4" x2="74.84" y2="103.4"/><polygon class="cls-3" points="97.59 74.25 101.68 72.24 98.7 78.07 97.59 74.25"/><polygon class="cls-3" points="48.9 74.25 44.82 72.24 47.8 78.07 48.9 74.25"/><path class="cls-6" d="M33.76,117.08l2.24-.6,9.24,7.64s-.2,8.39-.25,8.56a74,74,0,0,1-7.48-3.42C37.47,129.09,33.76,117.08,33.76,117.08Z"/><path class="cls-7" d="M16.15,154.25c.72,0,2.23-.82,4.25-2.16h0l.18-.12.58-.39.54-.38c.85-.59,1.78-1.26,2.75-2,.8-.59,1.62-1.21,2.48-1.87l.72-.56.62-.48c.46-.35.93-.72,1.4-1.1l1.78-1.41,2.23-1.8-.5-.21,2.6-2.13,2-1.63h0l.87-.73.89-.74h.24l.52-.43v-.2l1.2-1h.22l.56-.47h0l.49-.43v-.19l1.46-1.24a8.55,8.55,0,0,1-.86-.52V132l0,0-.6-.52h-.09l-.43-.38h-.16a15.52,15.52,0,0,1-1.42-1.49v-.2c-.15-.17-.29-.35-.42-.53l-.52-.72h-.17c-.19-.26-.37-.53-.54-.8h.18l-.33-.53-.32-.54h-.18c-.22-.38-.43-.77-.64-1.16v-.35l-.26-.52c-.09-.17-.17-.34-.25-.52H37c-.21-.43-.41-.86-.59-1.3,0-.11-.1-.21-.14-.32v-.4l0-.52h-.42c-.25-.62-.48-1.23-.7-1.82v-.53c-.19-.53-.36-1-.53-1.55H34.5c0-.14-.09-.28-.13-.41-2.27.67-4.63,1.43-7,2.27l-.2.07-.68.24-.92.34q-1.66.61-3.33,1.29l0,.23c-1.88.78-3.73,1.62-5.52,2.52l-1.15.58a47.07,47.07,0,0,0-10.23,6.91c-.53.49-1,1-1.52,1.5a20.4,20.4,0,0,0-3.16,4.35C.21,141.44,11.45,154.34,16.15,154.25Z"/><path class="cls-7" d="M35.29,116.7c3.84-1.15,7.42-2,10.39-2.75,5-1.15,8.21-1.69,8.21-1.69l5.4,8-5.2,4.54h0c-2.43,2.11-5.54,4.78-8.93,7.66C40.19,129.82,37,122,35.29,116.7Z"/><path class="cls-8" d="M15.63,124.33l6.13,11,7.87,9.86,1.79-1.41L33.65,142l-.5-.22c.87-.69,1.74-1.4,2.61-2.12.66-.53,1.32-1.08,2-1.62h0l.88-.73-7.26-8.42-4.83-9.5-.92.34c-1.11.4-2.22.83-3.33,1.27l0,.24c-1.88.77-3.74,1.6-5.53,2.5Z"/><polygon class="cls-9" points="38.14 134.88 26.81 144.73 25.77 143.3 37.3 133.72 38.14 134.88"/><polygon class="cls-9" points="29.07 122.01 16.13 129.62 15.37 128.03 28.46 120.71 29.07 122.01"/><polygon class="cls-9" points="33.04 129.02 20.53 137.33 19.68 135.78 32.35 127.75 33.04 129.02"/><path class="cls-6" d="M44.77,197.56l0-.21c5.86.74,18.28,2.19,24.93,1.9l-.38,5.91a4,4,0,0,1-3.82,3.69l-10.23.33c-13.82.44-14.28-2.2-14.66-5.5S44.77,197.56,44.77,197.56Z"/><path class="cls-3" d="M43.11,184.59c5,.66,20.32,2.57,27.37,2.07l-.17,2.55c-4.82-.08-21.06-.46-26.87-2.05Z"/><path class="cls-7" d="M43.68,189c5.39.71,19.61,2.44,26.52,2l-.41,6.4c-5.07-.09-19-.46-25.27-1.79Z"/><path class="cls-6" d="M41.42,171.39l29.7,5.36-.53,8.13c-4.58-.07-22.41-.47-27.72-2.23Z"/><path class="cls-10" d="M43.11,184.59l-.18-1.46-.06-.48c5.31,1.76,23.14,2.16,27.72,2.23l0,.89-.06.89C63.43,187.16,48.07,185.25,43.11,184.59Z"/><path class="cls-10" d="M43.68,189l-.24-1.84c5.81,1.59,22,2,26.87,2.05L70.2,191C63.29,191.44,49.07,189.71,43.68,189Z"/><path class="cls-6" d="M44.74,197.35l-.22-1.73c6.29,1.33,20.2,1.7,25.27,1.79l-.12,1.84C63,199.54,50.6,198.09,44.74,197.35Z"/><path class="cls-6" d="M111,117.08l-2.25-.6-9.24,7.64s.69,6,.73,6.13a47.94,47.94,0,0,0,7-1C107.27,129.09,111,117.08,111,117.08Z"/><path class="cls-7" d="M128.65,154.21c-.71,0-2.22-.81-4.25-2.15h0l-.18-.12-.58-.39c-.17-.12-.35-.25-.54-.37-.85-.6-1.78-1.26-2.76-2-.79-.58-1.62-1.2-2.48-1.86l-.73-.56-.62-.47-1.4-1.1-1.78-1.41c-.74-.58-1.48-1.18-2.24-1.79l.5-.22c-.86-.69-1.74-1.4-2.61-2.12-.66-.53-1.31-1.08-2-1.62h0l-.88-.73-.89-.74H105l-.52-.43V136l-1.2-1h-.22l-.56-.47h0l-.49-.43v-.19l-1.47-1.23c.29-.16.58-.34.86-.53V132l0,0,.6-.52h.09l.43-.37h.15a15.59,15.59,0,0,0,1.42-1.5v-.2c.14-.17.28-.35.41-.53l.52-.72h.17c.18-.26.36-.53.53-.8h-.18a5.84,5.84,0,0,0,.33-.53c.11-.17.22-.35.32-.53h.18c.22-.38.43-.77.64-1.16v-.34c.08-.18.17-.35.26-.52s.17-.35.25-.53h.19c.2-.43.4-.86.58-1.3,0-.11.1-.21.14-.32v-.4l0-.52h.43q.38-.93.69-1.83v-.53c.19-.53.36-1,.52-1.54h.19c0-.14.08-.28.13-.41,2.27.67,4.63,1.42,7,2.25l.2.07.68.24.92.34c1.12.4,2.23.83,3.33,1.27l0,.24c1.88.77,3.73,1.6,5.52,2.5.39.19.78.38,1.16.58a47.37,47.37,0,0,1,10.25,6.87c.53.49,1,1,1.52,1.5a20.71,20.71,0,0,1,3.18,4.34C144.56,141.34,133.36,154.28,128.65,154.21Z"/><path class="cls-7" d="M109.4,116.71c-3.84-1.13-7.43-2-10.4-2.71-5-1.13-8.21-1.67-8.21-1.67l-5.37,8s2,1.78,5.21,4.53h0c2.43,2.11,5.55,4.77,9,7.64C104.54,129.86,107.74,122,109.4,116.71Z"/><path class="cls-8" d="M129.12,124.33l-6.14,11-7.87,9.86-1.78-1.41c-.74-.58-1.48-1.18-2.24-1.79l.5-.22c-.86-.69-1.74-1.4-2.61-2.12-.66-.53-1.31-1.08-2-1.62h0l-.88-.73,7.26-8.42,4.83-9.5.92.34c1.12.4,2.23.83,3.33,1.27l0,.24c1.88.77,3.73,1.6,5.52,2.5C128.35,123.94,128.74,124.13,129.12,124.33Z"/><polygon class="cls-9" points="106.6 134.88 117.94 144.73 118.97 143.3 107.44 133.72 106.6 134.88"/><polygon class="cls-9" points="115.67 122.01 128.62 129.62 129.37 128.03 116.28 120.71 115.67 122.01"/><polygon class="cls-9" points="111.71 129.02 124.21 137.33 125.06 135.78 112.39 127.75 111.71 129.02"/><path class="cls-6" d="M102.22,197.56l0-.21c-5.85.74-18.28,2.19-24.92,1.9l.38,5.91a3.94,3.94,0,0,0,3.82,3.69l10.23.33c13.81.44,14.27-2.2,14.66-5.5S102.22,197.56,102.22,197.56Z"/><path class="cls-3" d="M103.88,184.59c-4.95.66-20.32,2.57-27.37,2.07l.17,2.55c4.82-.08,21.07-.46,26.87-2.05Z"/><path class="cls-7" d="M103.32,189c-5.4.71-19.62,2.44-26.52,2l.41,6.4c5.07-.09,19-.46,25.26-1.79Z"/><path class="cls-6" d="M105.57,171.39l-29.69,5.36.52,8.13c4.59-.07,22.41-.47,27.73-2.23Z"/><path class="cls-10" d="M103.88,184.59l.19-1.46.06-.48c-5.32,1.76-23.14,2.16-27.73,2.23l.06.89.05.89C83.56,187.16,98.93,185.25,103.88,184.59Z"/><path class="cls-10" d="M103.32,189l.23-1.84c-5.8,1.59-22,2-26.87,2.05l.12,1.8C83.7,191.44,97.92,189.71,103.32,189Z"/><path class="cls-6" d="M102.25,197.35l.22-1.73c-6.29,1.33-20.19,1.7-25.26,1.79l.12,1.84C84,199.54,96.4,198.09,102.25,197.35Z"/><path class="cls-7" d="M109.37,165.4c0,.47,0,.93-.05,1.38a21.6,21.6,0,0,1-.83,4.79c-2.8,9.42-45.63,7.37-65.18,0a9.7,9.7,0,0,1-2.8-1.6,7.7,7.7,0,0,1-.6-.54,7.27,7.27,0,0,1-.54-.57c-2.58-3-3.39-7.56-3.1-12.87l0-.38c0-.2,0-.39,0-.59l0-.38.06-.61c0-.13,0-.26,0-.39A88,88,0,0,1,40.67,136c.13-.4.27-.8.4-1.19l.42-1.2a196.39,196.39,0,0,1,9.36-21.85c5.44,2.65,12.35,3.44,19,3.35.49,0,1,0,1.47,0l1.52-.06a109.42,109.42,0,0,0,20.92-3.26,8.36,8.36,0,0,1,3.55,2.2l.22.22.34.34.21.23.31.36.19.24c1.82,2.24,3.74,5.84,5,11.63,0,.26.11.53.17.81l.15.83c.16.88.31,1.81.44,2.79,1,7.22,2.26,13.6,3.3,19.26l.12.66c.06.33.11.65.17,1l.23,1.34c.17,1,.33,1.95.47,2.89l.18,1.28c0,.21.05.41.08.62l.15,1.3A43.47,43.47,0,0,1,109.37,165.4Z"/><path class="cls-2" d="M63.17,114.07s3.3,16,9.81,18.08,9.81-18.59,9.81-18.59Z"/><rect class="cls-3" x="81.59" y="171.61" width="2.18" height="6.02"/><path class="cls-6" d="M84.08,116.27a21.69,21.69,0,0,0,0-5.4c-.43-1.73,12.1-3.89,12.1-3.89s-.19,5.48,2,7.75S84.08,116.27,84.08,116.27Z"/><path class="cls-6" d="M62.05,116.27a23.73,23.73,0,0,1,0-5.4c.39-1.73-11-3.89-11-3.89s.17,5.48-1.8,7.75S62.05,116.27,62.05,116.27Z"/><path class="cls-11" d="M103.43,126.2c-4,1-11.29,4.26-15.37,15-3,8-11.13,8-13.82,7.78l0-.11-.44.06a3.52,3.52,0,0,1-.41-.06v.1c-2.68.22-10.8.18-13.82-7.77-4.08-10.75-11.38-14-15.37-15l-.37,1.51c3.69.92,10.45,4,14.29,14.06a13.06,13.06,0,0,0,9.79,8.4,19,19,0,0,0,4,.43c.78,0,1.43,0,1.88-.09s1.1.09,1.88.09a19,19,0,0,0,4-.43,13.06,13.06,0,0,0,9.79-8.4c3.83-10.1,10.6-13.14,14.29-14.06Z"/><line class="cls-11" x1="73.76" y1="132.46" x2="73.76" y2="168.65"/><rect class="cls-11" x="73.37" y="132.46" width="0.78" height="36.37"/><path class="cls-11" d="M98.34,174h.54c.83-7.4,1.24-14.65.35-18.54-1.76-7.7,1-14.92,3.29-17.89.89-1.16,1.77-1.81,2.49-1.83l0-.52c-.89,0-1.88.73-2.88,2-2.9,3.78-5,11.28-3.39,18.32C99.59,159.39,99.17,166.62,98.34,174Z"/><path class="cls-11" d="M47.49,174H47c-.83-7.4-1.24-14.65-.35-18.54,1.75-7.7-1-14.92-3.29-17.89a4,4,0,0,0-2.55-1.83l.17-.52c.89,0,1.79.73,2.79,2,2.9,3.78,5,11.28,3.38,18.32C46.24,159.39,46.65,166.62,47.49,174Z"/><path class="cls-3" d="M36.62,162.78s46.29,18.31,72.38-.86c0,0,2.24,7.94-2.25,13.3,0,0-36.62,12.26-67-1.73Z"/><rect class="cls-12" x="65.98" y="168.83" width="16.84" height="11.57"/><rect class="cls-13" x="67.11" y="169.82" width="14.29" height="10.02"/><rect class="cls-14" x="75.27" y="170.38" width="3.43" height="8.81"/></g></g></svg>